{
 "cells": [
  {
   "cell_type": "code",
   "execution_count": 3,
   "metadata": {},
   "outputs": [],
   "source": [
    "import numpy as np\n",
    "import os"
   ]
  },
  {
   "cell_type": "code",
   "execution_count": 4,
   "metadata": {},
   "outputs": [],
   "source": [
    "def ffmpeg_filenames_cut(input_dir, output_dir):\n",
    "    try:\n",
    "        # List all files in the directory\n",
    "        files = os.listdir(input_dir)\n",
    "        # Filter out directories, only keep files\n",
    "        raw_files = [f for f in files if os.path.isfile(os.path.join(input_dir, f))]\n",
    "        cut_files = []\n",
    "        files = []\n",
    "\n",
    "        for raw in raw_files:\n",
    "            cut_file = output_dir + '/cut_'+raw\n",
    "            cut_files.append(cut_file)\n",
    "        \n",
    "        for raw in raw_files:\n",
    "            files.append(input_dir + '/' + raw)\n",
    "\n",
    "        return files, cut_files\n",
    "\n",
    "    except FileNotFoundError:\n",
    "        return f\"The directory {input_dir} does not exist.\"\n",
    "    except PermissionError:\n",
    "        return f\"Permission denied to access {input_dir}.\"\n",
    "\n",
    "def cut_audio(input_file, output_file, cut_begin, cut_end):\n",
    "    os.system(f'. /home/$USER/miniforge3/etc/profile.d/conda.sh; conda activate enfify; ffmpeg -i {input_file} -filter_complex \"[0]atrim=end={cut_begin},asetpts=PTS-STARTPTS[a1]; \\\n",
    " [0]atrim=start={cut_end},asetpts=PTS-STARTPTS[a2]; \\\n",
    " [a1][a2]concat=n=2:v=0:a=1[out]\" -map \"[out]\" {output_file}')\n",
    "    \n",
    "\n",
    "def cut_audio(input_file, output_file, cut_begin, cut_end):\n",
    "    os.system(f'. /home/$USER/miniforge3/etc/profile.d/conda.sh; conda activate enfify; ffmpeg -i {input_file} -filter_complex \"[0]atrim=end={cut_begin},asetpts=PTS-STARTPTS[a1]; \\\n",
    " [0]atrim=start={cut_end},asetpts=PTS-STARTPTS[a2]; \\\n",
    " [a1][a2]concat=n=2:v=0:a=1[out]\" -map \"[out]\" {output_file}')"
   ]
  },
  {
   "cell_type": "code",
   "execution_count": 5,
   "metadata": {},
   "outputs": [
    {
     "name": "stderr",
     "output_type": "stream",
     "text": [
      "ffmpeg version 7.0.1 Copyright (c) 2000-2024 the FFmpeg developers\n",
      "  built with gcc 12.3.0 (conda-forge gcc 12.3.0-13)\n",
      "  configuration: --prefix=/home/conda/feedstock_root/build_artifacts/ffmpeg_1719926049773/_h_env_placehold_placehold_placehold_placehold_placehold_placehold_placehold_placehold_placehold_placehold_placehold_placehold_placehold_placehold_placehold_placehold_placehold_placehold_plac --cc=/home/conda/feedstock_root/build_artifacts/ffmpeg_1719926049773/_build_env/bin/x86_64-conda-linux-gnu-cc --cxx=/home/conda/feedstock_root/build_artifacts/ffmpeg_1719926049773/_build_env/bin/x86_64-conda-linux-gnu-c++ --nm=/home/conda/feedstock_root/build_artifacts/ffmpeg_1719926049773/_build_env/bin/x86_64-conda-linux-gnu-nm --ar=/home/conda/feedstock_root/build_artifacts/ffmpeg_1719926049773/_build_env/bin/x86_64-conda-linux-gnu-ar --disable-doc --disable-openssl --enable-demuxer=dash --enable-hardcoded-tables --enable-libfreetype --enable-libharfbuzz --enable-libfontconfig --enable-libopenh264 --enable-libdav1d --enable-gnutls --enable-libmp3lame --enable-libvpx --enable-libass --enable-pthreads --enable-vaapi --enable-libopenvino --enable-gpl --enable-libx264 --enable-libx265 --enable-libaom --enable-libsvtav1 --enable-libxml2 --enable-pic --enable-shared --disable-static --enable-version3 --enable-zlib --enable-libopus --pkg-config=/home/conda/feedstock_root/build_artifacts/ffmpeg_1719926049773/_build_env/bin/pkg-config\n",
      "  libavutil      59.  8.100 / 59.  8.100\n",
      "  libavcodec     61.  3.100 / 61.  3.100\n",
      "  libavformat    61.  1.100 / 61.  1.100\n",
      "  libavdevice    61.  1.100 / 61.  1.100\n",
      "  libavfilter    10.  1.100 / 10.  1.100\n",
      "  libswscale      8.  1.100 /  8.  1.100\n",
      "  libswresample   5.  1.100 /  5.  1.100\n",
      "  libpostproc    58.  1.100 / 58.  1.100\n",
      "[aist#0:0/pcm_mulaw @ 0x5dfeb9de5dc0] Guessed Channel Layout: stereo\n",
      "Input #0, wav, from '/home/leo_dacasi/Dokumente/summerofcode/ENFify/notebooks/Talkbank_data/1082.wav':\n",
      "  Duration: 00:14:58.62, bitrate: 128 kb/s\n",
      "  Stream #0:0: Audio: pcm_mulaw ([7][0][0][0] / 0x0007), 8000 Hz, stereo, s16, 128 kb/s\n",
      "Stream mapping:\n",
      "  Stream #0:0 (pcm_mulaw) -> atrim:default\n",
      "  Stream #0:0 (pcm_mulaw) -> atrim:default\n",
      "  concat:out:a0 -> Stream #0:0 (pcm_s16le)\n",
      "Press [q] to stop, [?] for help\n",
      "Output #0, wav, to '/home/leo_dacasi/Dokumente/summerofcode/ENFify/notebooks/Talkbank_cut_data/cut_1082.wav':\n",
      "  Metadata:\n",
      "    ISFT            : Lavf61.1.100\n",
      "  Stream #0:0: Audio: pcm_s16le ([1][0][0][0] / 0x0001), 8000 Hz, stereo, s16, 256 kb/s\n",
      "      Metadata:\n",
      "        encoder         : Lavc61.3.100 pcm_s16le\n",
      "[out#0/wav @ 0x5dfeb9de5f80] video:0KiB audio:26207KiB subtitle:0KiB other streams:0KiB global headers:0KiB muxing overhead: 0.000291%\n",
      "size=   26207KiB time=00:13:58.62 bitrate= 256.0kbits/s speed=1.57e+04x    \n",
      "ffmpeg version 7.0.1 Copyright (c) 2000-2024 the FFmpeg developers\n",
      "  built with gcc 12.3.0 (conda-forge gcc 12.3.0-13)\n",
      "  configuration: --prefix=/home/conda/feedstock_root/build_artifacts/ffmpeg_1719926049773/_h_env_placehold_placehold_placehold_placehold_placehold_placehold_placehold_placehold_placehold_placehold_placehold_placehold_placehold_placehold_placehold_placehold_placehold_placehold_plac --cc=/home/conda/feedstock_root/build_artifacts/ffmpeg_1719926049773/_build_env/bin/x86_64-conda-linux-gnu-cc --cxx=/home/conda/feedstock_root/build_artifacts/ffmpeg_1719926049773/_build_env/bin/x86_64-conda-linux-gnu-c++ --nm=/home/conda/feedstock_root/build_artifacts/ffmpeg_1719926049773/_build_env/bin/x86_64-conda-linux-gnu-nm --ar=/home/conda/feedstock_root/build_artifacts/ffmpeg_1719926049773/_build_env/bin/x86_64-conda-linux-gnu-ar --disable-doc --disable-openssl --enable-demuxer=dash --enable-hardcoded-tables --enable-libfreetype --enable-libharfbuzz --enable-libfontconfig --enable-libopenh264 --enable-libdav1d --enable-gnutls --enable-libmp3lame --enable-libvpx --enable-libass --enable-pthreads --enable-vaapi --enable-libopenvino --enable-gpl --enable-libx264 --enable-libx265 --enable-libaom --enable-libsvtav1 --enable-libxml2 --enable-pic --enable-shared --disable-static --enable-version3 --enable-zlib --enable-libopus --pkg-config=/home/conda/feedstock_root/build_artifacts/ffmpeg_1719926049773/_build_env/bin/pkg-config\n",
      "  libavutil      59.  8.100 / 59.  8.100\n",
      "  libavcodec     61.  3.100 / 61.  3.100\n",
      "  libavformat    61.  1.100 / 61.  1.100\n",
      "  libavdevice    61.  1.100 / 61.  1.100\n",
      "  libavfilter    10.  1.100 / 10.  1.100\n",
      "  libswscale      8.  1.100 /  8.  1.100\n",
      "  libswresample   5.  1.100 /  5.  1.100\n",
      "  libpostproc    58.  1.100 / 58.  1.100\n",
      "[aist#0:0/pcm_s16le @ 0x60f4b08d61c0] Guessed Channel Layout: stereo\n",
      "Input #0, wav, from '/home/leo_dacasi/Dokumente/summerofcode/ENFify/notebooks/Talkbank_data/down_1082.wav':\n",
      "  Metadata:\n",
      "    encoder         : Lavf61.1.100\n",
      "  Duration: 00:14:58.62, bitrate: 32 kb/s\n",
      "  Stream #0:0: Audio: pcm_s16le ([1][0][0][0] / 0x0001), 1000 Hz, stereo, s16, 32 kb/s\n",
      "Stream mapping:\n",
      "  Stream #0:0 (pcm_s16le) -> atrim:default\n",
      "  Stream #0:0 (pcm_s16le) -> atrim:default\n",
      "  concat:out:a0 -> Stream #0:0 (pcm_s16le)\n",
      "Press [q] to stop, [?] for help\n",
      "Output #0, wav, to '/home/leo_dacasi/Dokumente/summerofcode/ENFify/notebooks/Talkbank_cut_data/cut_down_1082.wav':\n",
      "  Metadata:\n",
      "    ISFT            : Lavf61.1.100\n",
      "  Stream #0:0: Audio: pcm_s16le ([1][0][0][0] / 0x0001), 1000 Hz, stereo, s16, 32 kb/s\n",
      "      Metadata:\n",
      "        encoder         : Lavc61.3.100 pcm_s16le\n",
      "[out#0/wav @ 0x60f4b08d6380] video:0KiB audio:3276KiB subtitle:0KiB other streams:0KiB global headers:0KiB muxing overhead: 0.002325%\n",
      "size=    3276KiB time=00:13:58.62 bitrate=  32.0kbits/s speed=2.33e+04x    \n"
     ]
    }
   ],
   "source": [
    "input_dir = '/home/leo_dacasi/Dokumente/summerofcode/ENFify/notebooks/Talkbank_data'\n",
    "output_dir = '/home/leo_dacasi/Dokumente/summerofcode/ENFify/notebooks/Talkbank_cut_data'\n",
    "cut_begin = 60\n",
    "cut_end = 120\n",
    "\n",
    "files, cut_files = ffmpeg_filenames_cut(input_dir, output_dir)\n",
    "\n",
    "for i in range(len(files)):\n",
    "\n",
    "    cut_audio(files[i], cut_files[i], cut_begin, cut_end)\n",
    "\n"
   ]
  }
 ],
 "metadata": {
  "kernelspec": {
   "display_name": "enfify",
   "language": "python",
   "name": "python3"
  },
  "language_info": {
   "codemirror_mode": {
    "name": "ipython",
    "version": 3
   },
   "file_extension": ".py",
   "mimetype": "text/x-python",
   "name": "python",
   "nbconvert_exporter": "python",
   "pygments_lexer": "ipython3",
   "version": "3.10.14"
  }
 },
 "nbformat": 4,
 "nbformat_minor": 2
}
